<?xml version="1.0" encoding="utf-8"?>
<!-- Generator: Adobe Illustrator 24.0.1, SVG Export Plug-In . SVG Version: 6.00 Build 0)  -->
<svg version="1.1"
	 id="SvgjsSvg1001" inkscape:version="0.92.4 (5da689c313, 2019-01-14)" sodipodi:docname="logo_line.svg" xmlns:cc="http://creativecommons.org/ns#" xmlns:dc="http://purl.org/dc/elements/1.1/" xmlns:inkscape="http://www.inkscape.org/namespaces/inkscape" xmlns:rdf="http://www.w3.org/1999/02/22-rdf-syntax-ns#" xmlns:sodipodi="http://sodipodi.sourceforge.net/DTD/sodipodi-0.dtd" xmlns:svg="http://www.w3.org/2000/svg"
	 xmlns="http://www.w3.org/2000/svg" xmlns:xlink="http://www.w3.org/1999/xlink" x="0px" y="0px" viewBox="0 0 918.4 244.3"
	 style="enable-background:new 0 0 918.4 244.3;" xml:space="preserve">
<style type="text/css">
	.st0{fill:#66BB6A;}
	.st1{fill:#AB47BC;}
	.st2{fill:#BA68C8;}
	.st3{fill:#CE93D8;}
	.st4{enable-background:new    ;}
</style>
<sodipodi:namedview  bordercolor="#666666" borderopacity="1" fit-margin-bottom="0" fit-margin-left="0" fit-margin-right="0" fit-margin-top="0" gridtolerance="10" guidetolerance="10" id="namedview8" inkscape:current-layer="SvgjsSvg1001" inkscape:cx="685.01838" inkscape:cy="-11.17078" inkscape:pageopacity="0" inkscape:pageshadow="2" inkscape:window-height="1025" inkscape:window-maximized="1" inkscape:window-width="1920" inkscape:window-x="0" inkscape:window-y="27" inkscape:zoom="0.39333333" objecttolerance="10" pagecolor="#ffffff" showgrid="false">
	</sodipodi:namedview>
<g>
	<polygon id="SvgjsPolygon1008" class="st0" points="113.6,198 214,169 138.7,96.5 	"/>
	<polygon id="SvgjsPolygon1009" class="st1" points="219.1,173.8 269.3,222.1 51.7,222.1 	"/>
	<polygon id="SvgjsPolygon1010" class="st2" points="106.9,199.9 40,219.2 148.8,30.8 	"/>
	<polygon id="SvgjsPolygon1011" class="st3" points="140.4,89.8 157.1,22.1 265.9,210.5 	"/>
</g>
<g class="st4">
	<path class="st3" d="M395.8,63.3c2.6,4.5,4.1,11.6,4.6,21.2v100h-12.1v-59.7h-61.4v59.7h-12.1V85.1c0.5-9.6,2.1-16.8,4.8-21.5
		c2.7-4.7,7-8.2,13.1-10.4c6-2,14.3-3.1,25-3.1c11.3,0,19.7,1,25.3,3.1C389,55.4,393.2,58.7,395.8,63.3z M388.3,112V83
		c-0.4-6.9-1.4-11.6-3.1-14c-2.6-4.6-11.8-6.9-27.6-6.9c-15.6,0-24.8,2.4-27.6,7.1c-1.5,2.6-2.6,7.4-3.1,14.4V112H388.3z"/>
	<path class="st3" d="M466.1,63.2H425V50.1h95.6v13.1h-41.7v121.3h-12.9V63.2z"/>
	<path class="st3" d="M551.4,170.6c-2.9-5.2-4.3-13.7-4.3-25.4V89.3c0-11.6,1.3-20.2,3.9-25.5c2.6-5.4,7.4-9,14.4-10.8
		c7-1.8,18.1-2.8,33.3-2.9h30.1v12.3h-47.2l-2.5,0.2c-6.3,0.5-10.9,1.5-13.8,2.9c-4.1,2.3-6.1,10.2-6.1,23.8v21.5h69.7v13.1h-69.7
		v21.3c0,13.4,2.2,21.4,6.5,23.8c2.8,1.5,8,2.6,15.6,3.3h47.6v12.3l-47.8-0.2l-8.8-0.8l-3.5-0.8l-4.6-1.5
		C558.6,179.3,554.3,175.8,551.4,170.6z"/>
	<path class="st3" d="M748.4,68.1c1.3,4,2.1,9.5,2.4,16.4V150c-0.3,6.9-1.1,12.4-2.4,16.5c-1.3,4.1-3.4,7.4-6.2,9.8
		c-2.2,2-5.1,3.8-8.8,5.2c-3.1,1-7.4,1.8-13.1,2.3c-5.6,0.5-11.3,0.8-16.9,0.8c-5.6,0-11.3-0.3-17-0.9c-5.7-0.6-10-1.4-12.8-2.4
		c-3.7-1.2-6.8-2.9-9.2-5.2c-2.7-2.4-4.7-5.7-6-9.9c-1.3-4.2-2.2-9.6-2.6-16.4V84.9c0.4-6.8,1.2-12.3,2.6-16.4
		c1.3-4.2,3.4-7.5,6-9.9c2.4-2.2,5.5-4,9.2-5.4c2.8-1,7.1-1.8,12.8-2.3c5.7-0.5,11.4-0.8,17-0.8c5.6,0,11.3,0.3,16.9,0.8
		c5.6,0.5,10,1.3,13.1,2.3c3.7,1.4,6.7,3.1,8.8,5.2C745,60.8,747.1,64,748.4,68.1z M738.9,151.5V83.2c-0.6-7-1.7-11.8-3.3-14.2
		c0-0.3-1-1-3-2.1c-2-1.2-5.3-2.2-10.1-3.3c-4.7-1-11.1-1.5-19.2-1.5c-7,0-12.9,0.4-17.6,1.2c-4.7,0.8-8.2,1.8-10.6,2.9
		c-2.4,1.1-3.7,2.1-4.1,3c-1.7,2.7-2.8,7.6-3.3,14.6v67.4c0.6,7.2,1.7,12,3.3,14.4c0.4,0.8,1.8,1.7,4.1,2.8c2.4,1.1,5.9,2.1,10.6,3
		c4.7,0.9,10.5,1.3,17.6,1.3c8.1,0,14.5-0.5,19.2-1.5c4.7-1,8.2-2.2,10.5-3.5c2.2-1.3,3.2-1.9,2.8-1.9
		C737.2,163.2,738.3,158.4,738.9,151.5z"/>
	<path class="st3" d="M783.3,145.9v5.2c0.4,6.4,1.4,11.2,3.1,14.4c0.5,0.8,2,1.7,4.3,2.8c2.4,1.1,5.9,2.1,10.7,3
		c4.7,0.9,10.6,1.3,17.5,1.3h2.1h2.1c2.6,0,5.3-0.2,8.4-0.6c3-0.4,5.1-0.7,6.2-1c4.1-0.8,7.2-1.7,9.3-2.7c2.1-1,3.4-1.9,3.9-2.7
		c1.7-2.4,2.8-7.2,3.5-14.4v-7.1c-0.5-6.7-1.7-11.4-3.5-14.2c0-0.3-1-0.9-3-2c-2-1.1-5.3-2.1-10.1-3.2c-4.7-1-11.1-1.5-19-1.5
		c-5.6,0-10.4-0.3-14.4-0.8c-7.6-0.6-12.7-1.4-15.4-2.3c-3.3-1-6.4-2.8-9.2-5.4c-2.7-2.4-4.7-5.7-6-9.9c-1.3-4.2-2.2-9.6-2.6-16.4
		v-3.6c0.4-6.8,1.2-12.3,2.6-16.4c1.3-4.2,3.4-7.5,6-9.9c2.7-2.2,5.8-3.9,9.2-5.2c2.9-1,7.2-1.8,12.8-2.4s11.2-0.9,17-0.9
		c5.6,0,11.2,0.3,16.8,0.9c5.6,0.6,9.9,1.4,13,2.4c3.7,1.4,6.7,3.1,8.8,5c2.8,2.4,4.9,5.7,6.2,9.8c1.3,4.1,2.1,9.5,2.4,16.3V87
		h-11.7v-3.6c-0.6-7.3-1.8-12-3.5-14.2c0-0.3-1-1-3-2.1c-2-1.2-5.3-2.2-10.1-3.3c-4.7-1-11.1-1.5-19-1.5c-10,0-17.7,0.8-23,2.4
		c-5.4,1.6-8.5,3.2-9.4,4.7c-1.7,2.9-2.7,7.8-3.1,14.6v6.1c0.4,6.1,1.4,10.9,3.1,14.4c0.9,1.4,4.1,2.9,9.5,4.5
		c5.4,1.6,13.1,2.4,22.9,2.4c5.4,0,10.9,0.3,16.5,0.9c5.6,0.6,10,1.3,13.2,2.2c3.2,1,5.8,2.5,7.9,4.4l1.5,1.5
		c2.6,2.4,4.5,5.6,5.8,9.6c1.3,4,2,9.3,2.3,15.9v4c-0.3,6.7-1,12-2.3,15.9c-1.3,4-3.2,7.2-5.8,9.8l-0.4,0.6l-0.8,0.6
		c-0.4,0.5-1.5,1.3-3.3,2.5l-5,2.1c-2.8,0.6-4.9,1.1-6.1,1.3c-3.8,0.6-6.8,1-9,1.2c-2.8,0.3-5,0.4-6.5,0.4h-0.6
		c-1.8,0.1-4.3,0.2-7.5,0.2c-5.8,0-11.4-0.3-17-0.9s-9.8-1.4-12.8-2.4c-3.6-1-6.7-2.8-9.2-5.2c-2.6-2.4-4.5-5.6-5.9-9.6
		c-1.3-4-2.2-9.2-2.6-15.6l-0.2-1.2v-3.8H783.3z"/>
</g>
</svg>
